<svg width="189" height="220" viewBox="0 0 189 220" fill="none" xmlns="http://www.w3.org/2000/svg">
<g filter="url(#filter0_d_52_14)">
<mask id="mask0_52_14" style="mask-type:alpha" maskUnits="userSpaceOnUse" x="20" y="20" width="149" height="180">
<path shape-rendering="geometricPrecision" d="M20.0001 35.6668C20.0001 27.3825 26.7159 20.6667 35.0001 20.6667H153.667C161.951 20.6667 168.667 27.3825 168.667 35.6667V184.333C168.667 192.618 161.951 199.333 153.667 199.333H35.0001C26.7159 199.333 20.0001 192.618 20.0001 184.333V35.6668Z" fill="white"/>
</mask>
<g mask="url(#mask0_52_14)">
<path shape-rendering="geometricPrecision" fill-rule="evenodd" clip-rule="evenodd" d="M162.731 -17.0585C165.832 -19.0757 169.861 -19.1118 172.821 -16.8917C185.34 -7.49975 193.629 4.00014 196.686 16.3342C200.133 30.2397 196.756 44.4982 187.033 57.0837C182.243 63.2844 176.032 68.9237 168.667 73.8268V45.0875C173.504 36.7506 174.931 27.7048 172.736 18.8464C171.056 12.0705 167.311 5.62394 161.785 -0.131927C157.099 -5.01226 157.06 -13.3694 162.731 -17.0585ZM168.667 174.906V184.333C168.667 192.618 161.951 199.333 153.667 199.333H34.9999C26.7156 199.333 19.9999 192.618 19.9999 184.333V35.6666C19.9999 27.3824 26.7156 20.6666 34.9999 20.6666H153.667C161.951 20.6666 168.667 27.3824 168.667 35.6666V45.0875C167.699 46.7551 166.595 48.3943 165.356 49.9979C157.923 59.619 146.019 67.4718 131.333 72.4403C118.728 76.7049 104.625 78.6585 90.5252 78.1364C86.5318 77.9885 82.891 80.5955 82.0103 84.4934C80.9562 89.1592 84.2386 93.706 89.0186 93.8869C107.505 94.5865 126 92.0322 142.527 86.4407C152.273 83.1435 161.082 78.8753 168.667 73.8268V146.173C161.082 141.125 152.273 136.856 142.527 133.559C126 127.968 107.504 125.413 89.0172 126.113C84.238 126.294 80.9561 130.84 82.01 135.505C82.8906 139.402 86.5309 142.009 90.5237 141.861C104.624 141.339 118.729 143.293 131.335 147.557C146.021 152.526 157.926 160.379 165.359 170.001C166.597 171.603 167.7 173.24 168.667 174.906ZM168.667 174.906V146.173C176.032 151.076 182.243 156.715 187.033 162.916C196.756 175.502 200.133 189.76 196.686 203.666C193.629 216 185.34 227.5 172.82 236.892C169.861 239.112 165.833 239.076 162.732 237.059C157.062 233.37 157.101 225.014 161.786 220.135C167.313 214.378 171.059 207.931 172.739 201.154C174.936 192.293 173.507 183.245 168.667 174.906Z" fill="#F2F2F2"/>
</g>
</g>
<defs>
<filter id="filter0_d_52_14" x="0.00012207" y="0.666748" width="188.667" height="218.667" filterUnits="userSpaceOnUse" color-interpolation-filters="sRGB">
<feFlood flood-opacity="0" result="BackgroundImageFix"/>
<feColorMatrix in="SourceAlpha" type="matrix" values="0 0 0 0 0 0 0 0 0 0 0 0 0 0 0 0 0 0 127 0" result="hardAlpha"/>
<feOffset/>
<feGaussianBlur stdDeviation="10"/>
<feComposite in2="hardAlpha" operator="out"/>
<feColorMatrix type="matrix" values="0 0 0 0 0 0 0 0 0 0 0 0 0 0 0 0 0 0 0.4 0"/>
<feBlend mode="normal" in2="BackgroundImageFix" result="effect1_dropShadow_52_14"/>
<feBlend mode="normal" in="SourceGraphic" in2="effect1_dropShadow_52_14" result="shape"/>
</filter>
</defs>
</svg>
