<svg width="115" height="130" viewBox="0 0 115 130" fill="none" xmlns="http://www.w3.org/2000/svg">
<g filter="url(#filter0_d_90_276)">
<mask id="mask0_90_276" style="mask-type:alpha" maskUnits="userSpaceOnUse" x="20" y="20" width="75" height="90">
<path d="M20 35C20 26.7157 26.7157 20 35 20H79.3333C87.6176 20 94.3333 26.7157 94.3333 35V94.3333C94.3333 102.618 87.6176 109.333 79.3333 109.333H35C26.7157 109.333 20 102.618 20 94.3333V35Z" fill="white"/>
</mask>
<g mask="url(#mask0_90_276)">
<path fill-rule="evenodd" clip-rule="evenodd" d="M91.3657 1.13727C92.9162 0.12866 94.9307 0.11061 96.4104 1.22065C102.67 5.91663 106.814 11.6666 108.343 17.8336C110.067 24.7864 108.378 31.9156 103.516 38.2083C101.121 41.3087 98.0162 44.1283 94.3333 46.5799V34.9998C94.3333 34.1645 94.2651 33.3451 94.1338 32.5469C96.7123 28.2859 97.4954 23.6384 96.3678 19.0897C95.528 15.7017 93.6555 12.4785 90.8924 9.60054C88.5496 7.16037 88.53 2.98182 91.3657 1.13727ZM94.1342 96.7836C92.9645 103.902 86.7831 109.333 79.3333 109.333H35C26.7157 109.333 20 102.617 20 94.3332V34.9999C20 26.7156 26.7157 19.9998 35 19.9998H79.3333C86.7822 19.9998 92.963 25.4295 94.1338 32.5469C93.6993 33.2648 93.2138 33.9718 92.678 34.6655C88.9617 39.476 83.0093 43.4024 75.6665 45.8867C69.3639 48.019 62.3123 48.9957 55.2626 48.7347C53.2659 48.6608 51.4455 49.9643 51.0052 51.9132C50.4781 54.2461 52.1193 56.5195 54.5093 56.61C63.7523 56.9598 73.0002 55.6826 81.2637 52.8868C86.1365 51.2382 90.5412 49.1042 94.3333 46.5799V82.7531C90.5412 80.2288 86.1365 78.0947 81.2637 76.4461C73 73.6503 63.7519 72.3731 54.5086 72.723C52.119 72.8135 50.478 75.0865 51.005 77.4191C51.4453 79.3677 53.2654 80.6711 55.2618 80.5971C62.3121 80.336 69.3643 81.3128 75.6673 83.4453C83.0104 85.9296 88.9631 89.8562 92.6796 94.667C93.215 95.36 93.7 96.0663 94.1342 96.7836ZM94.1342 96.7836C94.2652 95.9862 94.3333 95.1676 94.3333 94.3332V82.7531C98.0162 85.2046 101.121 88.0242 103.516 91.1246C108.378 97.4173 110.067 104.547 108.343 111.499C106.814 117.666 102.67 123.417 96.41 128.113C94.9306 129.222 92.9164 129.204 91.366 128.196C88.5308 126.352 88.5504 122.174 90.893 119.734C93.6567 116.856 95.5296 113.632 96.3696 110.243C97.4974 105.694 96.7139 101.045 94.1342 96.7836Z" fill="white"/>
</g>
</g>
<defs>
<filter id="filter0_d_90_276" x="0" y="0" width="114.333" height="129.333" filterUnits="userSpaceOnUse" color-interpolation-filters="sRGB">
<feFlood flood-opacity="0" result="BackgroundImageFix"/>
<feColorMatrix in="SourceAlpha" type="matrix" values="0 0 0 0 0 0 0 0 0 0 0 0 0 0 0 0 0 0 127 0" result="hardAlpha"/>
<feOffset/>
<feGaussianBlur stdDeviation="10"/>
<feComposite in2="hardAlpha" operator="out"/>
<feColorMatrix type="matrix" values="0 0 0 0 0 0 0 0 0 0 0 0 0 0 0 0 0 0 0.4 0"/>
<feBlend mode="normal" in2="BackgroundImageFix" result="effect1_dropShadow_90_276"/>
<feBlend mode="normal" in="SourceGraphic" in2="effect1_dropShadow_90_276" result="shape"/>
</filter>
</defs>
</svg>
