<svg width="149" height="180" viewBox="0 0 149 180" fill="none" xmlns="http://www.w3.org/2000/svg">
<path fill-rule="evenodd" clip-rule="evenodd" d="M148.667 15.6667V22.3964C148.667 24.1592 148.221 25.9047 147.244 27.3716C146.654 28.2567 146.025 29.1325 145.356 29.998C137.923 39.6192 126.019 47.4719 111.333 52.4404C98.7279 56.7051 84.6246 58.6586 70.5252 58.1365C66.5318 57.9886 62.891 60.5956 62.0103 64.4935C60.9562 69.1593 64.2386 73.7062 69.0186 73.8871C87.5046 74.5866 106 72.0323 122.527 66.4408C125.888 65.3038 129.137 64.0514 132.263 62.6913C139.584 59.5062 148.667 64.5126 148.667 72.4964V107.504C148.667 115.488 139.584 120.494 132.263 117.309C129.137 115.949 125.888 114.696 122.527 113.559C106 107.968 87.5037 105.413 69.0172 106.113C64.238 106.294 60.9561 110.84 62.01 115.505C62.8906 119.403 66.5309 122.009 70.5237 121.861C84.6241 121.339 98.7286 123.293 111.335 127.558C126.021 132.526 137.926 140.379 145.359 150.001C146.026 150.865 146.654 151.738 147.243 152.621C148.221 154.089 148.667 155.835 148.667 157.598V164.333C148.667 172.618 141.951 179.333 133.667 179.333H14.9999C6.71562 179.333 -0.00012207 172.618 -0.00012207 164.333V15.6668C-0.00012207 7.38249 6.71561 0.666748 14.9999 0.666748H133.667C141.951 0.666748 148.667 7.38248 148.667 15.6667Z" fill="#F2F2F2"/>
</svg>
